<?xml version="1.0"?>
<svg
   xmlns="http://www.w3.org/2000/svg"
   viewBox="0 0 73.466667 274.62668"
   height="274.62668"
   width="73.466667"
   xml:space="preserve"
   version="1.1"><defs
     id="defs6" /><g
     transform="matrix(1.3333333,0,0,-1.3333333,0,274.62667)"
     id="g10"><g
       transform="scale(0.1)"
       id="g12"><path
         id="path14"
         style="fill:#f3f2eb;fill-opacity:1;fill-rule:nonzero;stroke:none"
         d="m 275.926,1990.16 c -27.988,0 -41.59,-10.86 -41.59,-33.2 0,-23.23 12.574,-33.6 40.789,-33.6 26.547,0 42.391,12.42 42.391,33.2 0,22.29 -13.993,33.6 -41.59,33.6 z m -0.801,-78.79 c -35.031,0 -52.793,15.33 -52.793,45.59 0,29.15 19.031,45.19 53.594,45.19 34.058,0 53.594,-16.62 53.594,-45.59 0,-27.87 -20.844,-45.19 -54.395,-45.19 z M 164.48,1812.95 c 24.473,-30.1 59.958,-44.76 108.247,-44.76 104.738,0 120.375,92.22 120.375,147.17 0,60.4 -20.672,132.39 -119.172,132.39 -70.914,0 -111.582,-35.29 -111.582,-96.79 0,-49.52 40.496,-82.79 100.781,-82.79 34.867,0 49.508,12.07 60.48,23.38 l 11.551,11.89 -1.262,-16.53 c -4.527,-59.46 -38.375,-71.93 -65.968,-71.93 -31.16,0 -48.032,10.94 -62.278,27.81 z m 108.247,-56.75 c -54.102,0 -95.02,18.31 -121.618,54.43 l -3.582,4.86 60.387,43.75 3.559,-4.58 c 13.636,-17.53 27.246,-27.68 56.457,-27.68 28.675,0 45.758,14.83 51.902,45.21 -12.41,-9.15 -29.301,-16.01 -56.703,-16.01 -67.457,0 -112.785,38.08 -112.785,94.78 0,68.12 46.203,108.78 123.586,108.78 84.59,0 131.175,-51.27 131.175,-144.38 0,-101.16 -48.253,-159.16 -132.378,-159.16" /><path
         id="path16"
         style="fill:#f3f2eb;fill-opacity:1;fill-rule:nonzero;stroke:none"
         d="m 275.926,1651.97 c -27.988,0 -41.59,-10.86 -41.59,-33.2 0,-23.24 12.574,-33.6 40.789,-33.6 26.547,0 42.391,12.41 42.391,33.19 0,22.3 -13.993,33.61 -41.59,33.61 z m -0.801,-78.79 c -35.031,0 -52.793,15.33 -52.793,45.59 0,29.14 19.031,45.19 53.594,45.19 34.058,0 53.594,-16.62 53.594,-45.6 0,-27.87 -20.844,-45.18 -54.395,-45.18 z M 164.48,1474.76 c 24.473,-30.11 59.958,-44.77 108.247,-44.77 104.738,0 120.375,92.22 120.375,147.18 0,60.39 -20.672,132.38 -119.172,132.38 -70.914,0 -111.582,-35.28 -111.582,-96.78 0,-49.52 40.496,-82.79 100.781,-82.79 34.867,0 49.508,12.07 60.48,23.38 l 11.551,11.89 -1.262,-16.54 c -4.527,-59.45 -38.375,-71.92 -65.968,-71.92 -31.16,0 -48.032,10.94 -62.278,27.8 z M 272.727,1418 c -54.102,0 -95.02,18.31 -121.618,54.44 l -3.582,4.86 60.387,43.75 3.559,-4.58 c 13.636,-17.53 27.246,-27.69 56.457,-27.69 28.675,0 45.758,14.84 51.902,45.22 -12.41,-9.15 -29.301,-16.02 -56.703,-16.02 -67.457,0 -112.785,38.09 -112.785,94.79 0,68.11 46.203,108.78 123.586,108.78 84.59,0 131.175,-51.27 131.175,-144.38 0,-101.16 -48.253,-159.17 -132.378,-159.17" /><path
         id="path18"
         style="fill:#f3f2eb;fill-opacity:1;fill-rule:nonzero;stroke:none"
         d="m 234.18,1195.28 h 53.75 v 66.09 c -14.446,-21.46 -34.969,-46.76 -53.75,-66.09 z m 65.75,-11.99 h -95.578 l 11.086,10.37 c 25.882,24.23 58.734,65.38 73.238,91.7 l 11.254,20.44 z m 0.593,-85.99 h 53.387 v 44.79 h 43.192 v 41.2 H 353.91 v 182.77 h -63.18 c -26.976,-50.03 -92.441,-134.63 -140.781,-174.43 v -49.54 h 150.574 z m 65.387,-11.99 h -77.387 v 44.78 H 137.945 v 67.27 l 2.243,1.8 c 48.484,38.94 115.933,126.41 141.613,175.67 l 1.683,3.22 h 82.426 v -182.77 h 43.195 v -65.19 H 365.91 v -44.78" /><path
         id="path20"
         style="fill:#f3f2eb;fill-opacity:1;fill-rule:nonzero;stroke:none"
         d="M 109.871,25.9297 H 534.992 V 66.4688 H 337.156 V 115.34 h 163.883 v 40.531 H 337.156 v 197.34 H 296.617 V 155.871 H 137.586 V 115.34 H 296.617 V 66.4688 H 109.871 Z M 546.996,13.9414 H 97.8672 V 78.4609 H 284.617 V 103.34 H 125.586 v 64.531 h 159.031 v 197.328 h 64.539 V 167.871 H 513.039 V 103.34 H 349.156 V 78.4609 h 197.84 V 13.9414" /><path
         id="path22"
         style="fill:#f3f2eb;fill-opacity:1;fill-rule:nonzero;stroke:none"
         d="m 110.359,225.27 20.317,-33.129 c 11.152,7.328 38.48,24.218 61.769,56.769 l 3.735,5.219 4.961,-4.09 c 11.472,-9.461 17.812,-23.828 18.875,-42.789 l 40.586,-0.051 c -1.723,44.68 -23.219,67.891 -41.391,79.59 l -4.109,2.66 1.761,4.563 c 7.817,20.207 12.008,37.367 12.754,58.429 l -40.562,0.18 C 185.77,277.578 128.109,237.191 110.359,225.27 Z m 16.032,-49.692 -32.2855,53.832 5.1562,3.012 c 3.1643,1.848 77.5473,42.297 77.9373,126.258 l 0.031,5.992 64.532,-0.293 -0.028,-6.008 c -0.101,-22.812 -4.14,-42.402 -12.004,-64.223 20.524,-14.628 43.047,-42.269 42.985,-92.957 l -0.012,-6 -64.531,0.071 0.004,6 c 0.019,15.117 -3.387,26.859 -10.145,35.008 -30.086,-39.52 -64.918,-56.821 -66.453,-57.711 l -5.187,-2.981" /><path
         id="path24"
         style="fill:#f3f2eb;fill-opacity:1;fill-rule:nonzero;stroke:none"
         d="m 376.945,225.27 20.317,-33.141 c 11.164,7.332 38.531,24.242 61.883,56.93 l 3.785,5.293 4.968,-4.204 C 482.137,238.129 485.762,219 486.566,207.25 l 40.629,-0.051 c -1.722,44.68 -23.222,67.891 -41.39,79.59 l -4.114,2.66 1.762,4.563 c 7.82,20.199 12.008,37.359 12.762,58.429 l -40.563,0.18 c -3.293,-75 -60.968,-115.422 -78.707,-127.351 z m 16.028,-49.692 -32.278,53.82 5.153,3.024 c 3.168,1.848 77.558,42.367 77.949,126.258 l 0.027,5.992 64.539,-0.293 -0.031,-6.008 c -0.105,-22.82 -4.144,-42.41 -12.012,-64.223 20.524,-14.628 43.043,-42.257 42.989,-92.957 l -0.008,-6 -64.531,0.071 0.003,5.988 c 0.004,5.641 -0.796,23.102 -10.132,35.051 -30.129,-39.602 -64.946,-56.86 -66.481,-57.742 l -5.187,-2.981" /><path
         id="path26"
         style="fill:#f3f2eb;fill-opacity:1;fill-rule:nonzero;stroke:none"
         d="m 13.5703,54.1094 5.9531,-40.2578 c 21.5743,4.9101 59.1993,23.0273 58.4922,89.5274 l 0.0274,275.133 c 0.2343,6.359 5.2031,11.148 11.3164,11.148 L 534.094,389.621 V 430.16 H 337.156 v 19.262 H 296.617 V 430.16 H 93.3711 c -33.9609,0 -55.9023,-23.379 -55.9023,-59.558 L 37.4766,102.879 C 37.8555,67.9688 25.3359,57.5781 13.5703,54.1094 Z M 9.44141,0 -0.00390625,63.8281 5.94141,64.7109 C 12.4063,65.6602 25.8555,67.6406 25.4766,102.82 l -0.0118,267.782 c 0,42.796 27.293,71.546 67.9063,71.546 H 284.617 v 19.262 h 64.539 V 442.148 H 546.098 V 377.629 L 90.0469,377.672 90.0156,103.449 C 90.8906,20.9492 38.1094,4.23047 15.375,0.871094 L 9.44141,0" /><path
         id="path28"
         style="fill:#f3f2eb;fill-opacity:1;fill-rule:nonzero;stroke:none"
         d="m 30.125,920.469 19.4961,-34.641 91.4019,45.453 69.004,-44.441 23.047,34.371 -89.734,57.91 z m 14.6328,-50.457 -31.1875,55.398 130.4337,67.551 105.84,-68.301 -36.41,-54.281 -73.172,47.109 -95.5042,-47.476" /><path
         id="path30"
         style="fill:#f3f2eb;fill-opacity:1;fill-rule:nonzero;stroke:none"
         d="m 37.5039,592.199 2.3086,-38.469 200.4175,11.559 -2.308,38.461 -79.176,-4.559 v 140.231 h 83.723 v 38.539 h -83.723 v 36.828 h 61.692 v 39.539 H 56.5273 V 814.789 H 118.215 V 777.961 H 34.4961 V 739.422 H 118.215 V 596.859 Z m -8.9531,-51.14 -3.7422,62.429 81.4064,4.703 V 727.43 H 22.4922 v 62.531 h 83.7228 v 12.84 H 44.5234 V 866.32 H 232.438 V 802.801 H 170.75 v -12.84 h 83.719 V 727.43 H 170.75 V 611.91 l 78.434,4.52 L 252.93,554 28.5508,541.059" /><path
         id="path32"
         style="fill:#f3f2eb;fill-opacity:1;fill-rule:nonzero;stroke:none"
         d="m 30.8906,705.66 c -3.125,-20.539 2.2657,-49.379 26.6797,-72.488 L 83.5781,662.5 c -11.7773,12.48 -13.1797,26.551 -12.8437,34.398 z m 27.7891,-89.34 -4.4766,3.77 c -34.9023,29.41 -40.039,69.082 -33.8359,94.121 l 1.3945,5.609 31.1563,-6.511 31.4648,-7.239 -1.2265,-5.769 c -0.4102,-1.93 -3.5391,-19.231 12.6289,-32.84 l 4.7068,-3.973 -41.8123,-47.168" /><path
         id="path34"
         style="fill:#f3f2eb;fill-opacity:1;fill-rule:nonzero;stroke:none"
         d="m 193.441,662.551 25.899,-27.442 c 28.949,27.172 28.633,56.922 26.703,70.469 l -39.816,-8.738 c 0.32,-7.84 -1.106,-21.86 -12.786,-34.289 z m 24.903,-44.172 -41.93,45.062 4.766,4.02 c 16.136,13.59 13.039,30.918 12.633,32.848 l -1.231,5.832 62.609,13.73 1.407,-5.672 c 6.394,-25.84 0.863,-62.859 -33.836,-92.097 l -4.418,-3.723" /><path
         id="path36"
         style="fill:#f3f2eb;fill-opacity:1;fill-rule:nonzero;stroke:none"
         d="m 345.531,884.602 h 138.114 l -0.043,31.867 H 345.523 Z M 495.668,872.609 H 333.539 l -0.016,44.821 0.004,0.109 c 0.239,6.133 5.231,10.922 11.356,10.922 h 139.406 c 6.098,0 11.07,-4.789 11.309,-10.922 z M 345.535,820.07 v -29.851 l 138.098,0.011 0.023,29.84 z m -12.004,-41.84 v 53.829 h 162.137 l -0.035,-42.668 c -0.235,-6.36 -5.199,-11.153 -11.313,-11.153 z M 350.848,969 C 308.152,969 293,938.039 293,911.539 V 623.77 c 0,-21.258 7.91,-40.54 22.281,-54.301 13.727,-13.16 33.032,-20.84 50.867,-19.949 12.274,0.511 33.239,3.859 43.641,5.621 l -7.187,39.898 c -10.836,-1.828 -28.887,-4.629 -38.176,-5.027 -5.531,0.168 -14.18,2.078 -21.11,8.726 -6.488,6.223 -9.785,14.641 -9.785,25.032 v 113.921 h 36.16 l 1.282,-4.261 c 12.058,-39.91 50.515,-136.09 149.343,-178.821 l 15.153,37.621 c -19.992,8.801 -38.508,21.09 -55.11,36.59 l -5.73,5.352 6.664,4.129 c 14.91,9.25 32.379,21.449 50.227,42.121 l -31.407,24.648 c -19.754,-22.672 -38.097,-31.449 -47.207,-36.3 l -4.804,-2.551 -3.012,4.531 c -11.961,17.969 -22.027,37.762 -29.906,58.84 l -3.028,8.101 h 68.399 c 42.593,0 55.015,34.387 55.633,52.579 l -0.004,119.16 c 0,43.961 -28.891,59.57 -53.637,59.57 z m 12.757,-431.531 c -20.503,0 -41.14,8.5 -56.625,23.332 C 290.227,576.84 281,599.199 281,623.77 v 287.769 c 0,34.57 21.594,69.449 69.848,69.449 h 131.699 c 32.672,0 65.641,-22.129 65.641,-71.558 V 790.059 c -0.879,-25.989 -19.618,-64.36 -67.633,-64.36 h -50.957 c 6.281,-15.328 13.945,-30.23 22.5,-43.711 9.98,5.582 25.953,14.871 42.586,35.25 l 3.796,4.66 49.989,-39.828 -3.793,-4.629 c -17.653,-21.64 -35.031,-35.062 -50.328,-45.05 15.547,-13.411 32.715,-23.942 51.132,-31.36 l 5.567,-2.25 -24.109,-59.851 -5.567,2.242 C 417.078,583.18 374.992,681.09 360.809,725.699 H 345.535 V 623.77 c 0,-6.989 2.047,-12.5 6.09,-16.36 4.578,-4.39 9.906,-5.359 12.395,-5.398 10.496,0.449 34.714,4.488 42.367,5.867 l 5.902,1.07 11.445,-63.527 -5.91,-1.063 c -5.687,-1.019 -34.89,-6.14 -51.168,-6.839 -1.008,-0.04 -2.027,-0.051 -3.051,-0.051" /></g></g></svg>
