<?xml version="1.0" encoding="utf-8"?>
<!-- Generator: Adobe Illustrator 16.0.3, SVG Export Plug-In . SVG Version: 6.00 Build 0)  -->
<!DOCTYPE svg PUBLIC "-//W3C//DTD SVG 1.1//EN" "http://www.w3.org/Graphics/SVG/1.1/DTD/svg11.dtd">
<svg version="1.1"
	 id="svg2" xmlns:dc="http://purl.org/dc/elements/1.1/" xmlns:cc="http://creativecommons.org/ns#" xmlns:rdf="http://www.w3.org/1999/02/22-rdf-syntax-ns#" xmlns:svg="http://www.w3.org/2000/svg"
	 xmlns="http://www.w3.org/2000/svg" xmlns:xlink="http://www.w3.org/1999/xlink" x="0px" y="0px" width="195.512px"
	 height="94.329px" viewBox="91.22 124.316 195.512 94.329" enable-background="new 91.22 124.316 195.512 94.329"
	 xml:space="preserve">
<g id="g10" transform="matrix(1.3333333,0,0,-1.3333333,0,377.94667)">
	<g id="g12" transform="scale(0.1)">
		<path id="path14" fill="#F3F2EB" d="M684.154,1349.939c0,93.984,61.597,159.968,166.78,159.968
			c72.788,0,117.18-23.987,142.375-64.38l-63.186-39.998c-16.003,23.203-37.603,37.192-79.592,37.192
			c-53.591,0-85.188-34.79-85.188-92.38c0-57.993,30.798-89.194,91.187-89.194c55.195,0,75.586,41.594,75.586,56.001v1.604h-64.79
			v60.776h135.974V1201.96h-39.587l-12.393,38.804c-22.8-28-52.793-46.003-105.183-46.003
			C748.145,1194.76,684.154,1261.147,684.154,1349.939"/>
		<path id="path16" fill="#F3F2EB" d="M1061.16,1504.311h78.376V1201.96h-78.376V1504.311"/>
		<path id="path18" fill="#F3F2EB" d="M1201.273,1504.311h99.185l121.575-202.361l-2.791,202.361h73.579V1201.96h-91.582
			l-129.58,213.567l3.201-213.567h-73.586V1504.311"/>
		<path id="path20" fill="#F3F2EB" d="M1534.151,1264.751l178.367,179.971h-173.181v59.59h265.166v-61.992l-177.971-179.568h183.97
			v-60.791h-276.35V1264.751"/>
		<path id="path22" fill="#F3F2EB" d="M1985.323,1432.717l-41.206-115.964h82.39L1985.323,1432.717z M1903.328,1201.96h-75.981
			l114.382,302.351h93.582l115.181-302.351h-82.793l-19.988,56.396h-124.38L1903.328,1201.96"/>
		<path id="path24" fill="#F3F2EB" d="M821.241,1832.641c-27.986,0-41.587-10.854-41.587-33.201
			c0-23.232,12.576-33.589,40.789-33.589c26.543,0,42.393,12.407,42.393,33.186C862.835,1821.34,848.839,1832.641,821.241,1832.641z
			 M820.443,1753.862c-35.032,0-52.793,15.33-52.793,45.579c0,29.15,19.036,45.198,53.591,45.198
			c34.058,0,53.599-16.619,53.599-45.601C874.84,1771.169,853.995,1753.862,820.443,1753.862z M709.796,1655.439
			c24.478-30.11,59.956-44.766,108.252-44.766c104.736,0,120.374,92.219,120.374,147.173c0,60.396-20.676,132.385-119.172,132.385
			c-70.913,0-111.584-35.281-111.584-96.782c0-49.526,40.496-82.8,100.781-82.8c34.871,0,49.504,12.07,60.483,23.379l11.55,11.902
			l-1.26-16.538c-4.526-59.451-38.379-71.924-65.977-71.924c-31.15,0-48.025,10.942-62.271,27.803L709.796,1655.439z
			 M818.048,1598.684c-54.104,0-95.024,18.303-121.619,54.426l-3.582,4.871l60.381,43.748l3.56-4.578
			c13.638-17.527,27.246-27.693,56.455-27.693c28.682,0,45.762,14.846,51.907,45.22c-12.415-9.148-29.304-16.018-56.704-16.018
			c-67.456,0-112.786,38.093-112.786,94.79c0,68.108,46.201,108.779,123.589,108.779c84.587,0,131.177-51.277,131.177-144.375
			C950.426,1656.692,902.174,1598.684,818.048,1598.684"/>
		<path id="path26" fill="#F3F2EB" d="M1108.841,1832.641c-27.993,0-41.594-10.854-41.594-33.201
			c0-23.232,12.583-33.589,40.796-33.589c26.55,0,42.385,12.407,42.385,33.186
			C1150.428,1821.34,1136.439,1832.641,1108.841,1832.641z M1108.043,1753.862c-35.032,0-52.793,15.33-52.793,45.579
			c0,29.15,19.028,45.198,53.591,45.198c34.058,0,53.591-16.619,53.591-45.601
			C1162.432,1771.169,1141.588,1753.862,1108.043,1753.862z M997.396,1655.439c24.478-30.11,59.956-44.766,108.245-44.766
			c104.736,0,120.381,92.219,120.381,147.173c0,60.396-20.684,132.385-119.18,132.385c-70.913,0-111.577-35.281-111.577-96.782
			c0-49.526,40.496-82.8,100.774-82.8c34.871,0,49.512,12.07,60.491,23.379l11.543,11.902l-1.26-16.538
			c-4.519-59.451-38.372-71.924-65.969-71.924c-31.15,0-48.025,10.942-62.271,27.803L997.396,1655.439z M1105.64,1598.684
			c-54.097,0-95.017,18.303-121.611,54.426l-3.589,4.871l60.388,43.748l3.56-4.578c13.645-17.527,27.239-27.693,56.455-27.693
			c28.674,0,45.754,14.846,51.907,45.22c-12.422-9.148-29.297-16.018-56.711-16.018c-67.449,0-112.778,38.093-112.778,94.79
			c0,68.108,46.201,108.779,123.582,108.779c84.587,0,131.177-51.277,131.177-144.375
			C1238.018,1656.692,1189.774,1598.684,1105.64,1598.684"/>
		<path id="path28" fill="#F3F2EB" d="M1363.087,1714.26h53.752v66.094C1402.403,1758.894,1381.881,1733.589,1363.087,1714.26z
			 M1428.851,1702.263h-95.581l11.082,10.378c25.891,24.229,58.74,65.376,73.242,91.692l11.257,20.435V1702.263z M1429.437,1616.284
			h53.386v44.773h43.198v41.206h-43.198v182.776h-63.171c-26.982-50.032-92.454-134.626-140.793-174.441v-49.541h150.579V1616.284z
			 M1494.827,1604.287h-77.388v44.78h-150.579v67.273l2.241,1.787c48.486,38.95,115.935,126.423,141.621,175.686l1.677,3.215h82.427
			V1714.26h43.191v-65.193h-43.191V1604.287"/>
	</g>
</g>
</svg>
